<?xml version="1.0" encoding="UTF-8"?>
<svg id="Layer_1" xmlns="http://www.w3.org/2000/svg" version="1.1" viewBox="0 0 31.9 32">
  <!-- Generator: Adobe Illustrator 30.1.0, SVG Export Plug-In . SVG Version: 2.1.1 Build 136)  -->
  <defs>
    <style>
      .st0 {
        fill: #fefefe;
      }
    </style>
  </defs>
  <rect width="31.9" height="32"/>
  <path class="st0" d="M10.6,11.4c1.6,1.9,2.9,4.1,4.5,6l-3.9-11.3,4.6-3.8,4.9,3.8-4,11.2c1.6-1.8,2.9-4,4.5-5.9h6.1s.2.2.2.2v5.1l-10,1.7v.2c0,.2,4.8.6,5.6.7s.8.1.8.3v4.2s-.2.2-.2.2h-4.7c-.7-1.4-1.5-2.8-2.3-4.1s-.1-.3-.3-.3v12.4h-1.1v-12.4c-1,1.3-1.9,2.9-2.7,4.3h-4.5s-.2-.2-.2-.2v-4.2l6.7-1v-.2c-.1,0-10.1-1.7-10.1-1.7l-.2-.2v-4.9s.2-.2.2-.2h6.1Z"/>
</svg>