<?xml version="1.0" encoding="UTF-8"?>
<svg id="Layer_1" xmlns="http://www.w3.org/2000/svg" version="1.1" viewBox="0 0 31.9 32">
  <!-- Generator: Adobe Illustrator 30.1.0, SVG Export Plug-In . SVG Version: 2.1.1 Build 136)  -->
  <defs>
    <style>
      .st0 {
        fill: #fefefe;
      }
    </style>
  </defs>
  <rect width="31.9" height="32"/>
  <g>
    <path class="st0" d="M26.5,3.2v21.6c0,0-.3,1-.3,1.1-.6,1.7-2.1,2.6-3.9,2.7-4.3.3-8.9-.2-13.3,0-1.9-.2-3.7-1.9-3.7-3.8V3.2h21.1ZM25.8,3.9H6.2v21.1c0,1.4,1.4,2.8,2.8,2.9,4.5-.2,9.2.3,13.7,0s2-.6,2.6-1.5.6-1.3.6-1.5V3.9Z"/>
    <path class="st0" d="M11.9,11.5c1.2,1.4,2.2,3.1,3.4,4.5l-2.9-8.5,3.5-2.9,3.7,2.9-3,8.4c1.2-1.4,2.2-3,3.4-4.4h4.6s.1.1.1.1v3.8l-7.5,1.3h0c.2.3,3.7.6,4.3.7s.6,0,.6.2v3.2s-.1.1-.1.1h-3.6c-.6-1-1.1-2.1-1.7-3.1s0-.2-.2-.2v9.3h-.8v-9.3c-.8,1-1.4,2.2-2,3.3h-3.4s-.1-.1-.1-.1v-3.2l5-.7h0c0-.1-7.5-1.4-7.5-1.4h-.1v-3.8s.1-.1.1-.1h4.6Z"/>
  </g>
</svg>